<?xml version="1.0" standalone="no"?>
<!DOCTYPE svg PUBLIC "-//W3C//DTD SVG 20010904//EN"
 "http://www.w3.org/TR/2001/REC-SVG-20010904/DTD/svg10.dtd">
<svg version="1.0" xmlns="http://www.w3.org/2000/svg"
 width="500.000000pt" height="500.000000pt" viewBox="0 0 500.000000 500.000000"
 preserveAspectRatio="xMidYMid meet">
<metadata>
Created by potrace 1.14, written by Peter Selinger 2001-2017
</metadata>
<g transform="translate(0.000000,500.000000) scale(0.100000,-0.100000)"
fill="#000000" stroke="none">
<path d="M2370 4492 c-40 -6 -49 -19 -39 -55 12 -44 11 -163 -2 -211 -10 -34
-9 -42 7 -53 27 -20 53 8 49 55 -2 32 2 41 36 71 41 34 66 75 63 101 -1 8 -2
22 -3 30 -1 8 -5 20 -9 27 -12 18 -74 40 -102 35z m60 -96 c0 -37 -31 -98 -43
-86 -11 11 -14 139 -4 149 20 20 47 -17 47 -63z"/>
<path d="M1940 4469 c-138 -36 -152 -44 -130 -79 8 -13 13 -13 40 2 35 20 34
20 49 -52 16 -78 19 -93 26 -144 8 -49 30 -61 55 -31 13 15 -1 77 -46 200 -19
54 -18 55 14 55 16 0 37 6 47 14 16 12 17 16 6 30 -15 18 -13 18 -61 5z"/>
<path d="M2105 4370 c-3 -5 -3 -15 1 -21 6 -11 23 6 24 24 0 10 -18 9 -25 -3z"/>
<path d="M2244 4355 c-6 -14 34 -70 43 -61 15 15 9 47 -13 61 -22 14 -25 14
-30 0z"/>
<path d="M1625 4346 c-59 -26 -62 -40 -18 -98 35 -47 81 -133 97 -180 7 -22
29 -23 45 -4 9 11 7 22 -10 51 l-22 37 29 -16 c16 -9 36 -21 45 -28 9 -6 24
-8 33 -5 19 8 39 54 31 74 -6 19 -40 12 -40 -7 0 -21 -30 -24 -59 -5 -20 14
-24 21 -16 35 20 38 12 96 -19 129 -32 34 -50 37 -96 17z m59 -45 c29 -32 40
-111 15 -111 -13 0 -80 110 -74 121 10 15 41 10 59 -10z"/>
<path d="M2171 4351 c-9 -6 -11 -18 -7 -36 11 -42 -4 -95 -28 -105 -33 -12
-47 7 -42 57 2 24 2 53 -1 64 -6 21 -36 26 -50 7 -11 -15 -10 -24 6 -62 6 -16
10 -35 7 -41 -7 -19 39 -65 64 -65 12 0 35 9 52 21 27 20 30 20 42 4 15 -21
50 -16 54 9 3 14 0 17 -17 11 -27 -8 -40 22 -33 77 2 22 -1 45 -8 53 -14 17
-20 18 -39 6z"/>
<path d="M1980 4329 c0 -24 20 -88 29 -94 5 -2 5 12 0 33 -6 20 -11 42 -12 49
-5 19 -17 28 -17 12z"/>
<path d="M1818 4268 c-20 -7 -28 -17 -28 -34 0 -21 3 -23 29 -18 38 8 71 -24
71 -67 0 -43 -36 -98 -68 -106 -15 -3 -37 -17 -49 -30 -24 -25 -52 -30 -70
-12 -7 7 -12 0 -17 -25 -7 -35 -45 -76 -72 -76 -7 0 -16 -9 -19 -20 -7 -21
-56 -52 -77 -48 -6 2 -14 -6 -16 -17 -15 -68 -64 -90 -116 -50 -41 31 -44 28
-16 -17 33 -55 25 -106 -27 -166 -61 -71 -154 -50 -148 34 2 18 -3 20 -53 19
-61 -2 -61 -2 -118 -99 -20 -33 -40 -84 -45 -115 -9 -54 -45 -166 -59 -186 -4
-5 -13 -35 -21 -65 -19 -80 -13 -182 16 -264 13 -38 22 -73 19 -78 -3 -5 -6
-53 -6 -106 0 -108 18 -171 72 -252 19 -28 30 -58 30 -80 0 -65 38 -149 90
-200 14 -14 59 -64 100 -110 86 -96 107 -116 164 -149 22 -13 47 -31 56 -41
57 -68 54 -58 35 -114 -42 -129 -31 -185 63 -315 13 -18 17 -45 18 -106 0 -66
4 -88 22 -118 20 -32 104 -97 146 -113 11 -4 15 -20 15 -62 -1 -124 29 -244
71 -290 11 -12 20 -26 20 -31 0 -6 13 -32 28 -58 15 -26 34 -75 42 -107 8 -34
27 -77 45 -100 39 -51 120 -101 170 -104 21 -2 45 -6 54 -11 37 -19 196 -10
254 14 17 7 18 3 11 -66 -13 -113 -8 -183 16 -229 14 -28 26 -40 36 -36 8 3
14 1 14 -3 0 -12 66 4 85 19 8 7 15 9 15 6 0 -4 7 0 16 8 8 9 23 17 32 17 61
6 129 7 485 9 348 2 399 4 404 17 4 9 1 23 -5 32 -7 9 -15 23 -18 31 -19 52
-50 112 -82 159 -31 45 -48 59 -102 83 -116 53 -252 85 -342 82 -47 -2 -68 1
-69 9 -4 41 -7 83 -13 167 -4 52 -9 109 -13 125 -7 37 -11 126 -6 141 2 5 27
11 56 12 30 0 64 5 78 10 13 5 33 6 44 2 55 -19 191 42 248 112 25 32 52 50
77 53 17 2 80 38 80 45 0 5 -19 19 -42 31 -41 21 -133 28 -161 13 -7 -4 22 27
63 67 104 102 120 125 194 274 100 201 111 271 108 695 -3 431 -7 470 -51 470
-12 0 -23 17 -35 55 -17 56 -49 90 -93 101 -22 6 -23 10 -24 98 -1 103 -4 150
-26 338 -3 30 1 64 11 96 23 69 25 99 8 156 -7 27 -11 60 -7 75 3 15 2 21 -3
14 -4 -7 -17 -14 -27 -16 -11 -1 -25 -6 -31 -10 -22 -13 -57 27 -56 63 0 21
-2 29 -7 21 -9 -14 -63 -18 -126 -8 -22 3 -46 6 -53 6 -7 1 -20 17 -28 37 -12
29 -18 33 -29 24 -17 -14 -82 -15 -117 -1 -15 5 -34 24 -43 41 -13 25 -19 29
-35 20 -10 -5 -25 -7 -34 -4 -12 5 -12 8 3 23 14 14 20 43 26 122 5 57 8 108
7 112 -1 4 20 5 48 1 41 -5 50 -4 50 8 0 29 -29 40 -112 41 -77 2 -83 1 -83
-18 0 -16 7 -20 33 -20 l32 0 -6 -55 c-4 -30 -10 -64 -14 -75 -4 -11 -8 -23
-8 -28 -2 -27 -15 -67 -23 -67 -5 0 -9 17 -9 38 l-1 37 -23 -48 c-25 -52 -55
-78 -96 -88 -53 -11 -104 36 -99 95 2 22 -5 42 -24 67 -32 42 -39 91 -20 130
18 37 2 97 -38 142 -15 16 -20 17 -38 5 -12 -7 -21 -22 -21 -33 0 -44 -12 -64
-42 -71 -26 -5 -34 -2 -53 22 l-22 27 -17 -24 c-13 -19 -26 -24 -64 -26 -26
-1 -64 -5 -85 -9 -42 -7 -82 13 -97 49 -8 20 -9 18 -9 -10 -1 -58 -59 -93 -95
-58 -8 8 -25 47 -37 85 -23 73 -26 75 -71 58z"/>
<path d="M1574 4146 c-19 -14 -19 -15 5 -40 25 -26 61 -35 61 -16 0 17 -29 70
-38 70 -5 0 -17 -6 -28 -14z"/>
<path d="M2569 4130 c-30 -30 -37 -66 -19 -101 8 -14 21 -19 49 -19 51 0 66
-20 62 -82 -1 -24 -28 -23 -36 2 -8 24 -18 25 -39 4 -22 -21 -20 -40 6 -58 32
-23 53 -20 89 12 26 23 33 38 35 75 3 61 -12 79 -67 82 -54 2 -69 10 -69 35 0
22 16 35 25 20 9 -15 52 -12 58 4 8 20 -13 45 -42 51 -16 3 -32 -4 -52 -25z"/>
<path d="M1490 4115 c-7 -8 -9 -15 -5 -15 4 0 -5 -10 -21 -22 -39 -30 -44 -38
-44 -75 0 -66 49 -133 97 -133 29 0 73 44 73 73 0 10 8 17 19 17 21 0 44 24
48 50 5 31 -16 33 -28 3 l-10 -28 -19 25 c-11 14 -25 39 -31 55 -24 60 -55 79
-79 50z m45 -89 c20 -31 30 -91 17 -100 -15 -9 -78 57 -84 88 -8 41 42 50 67
12z"/>
<path d="M1259 4033 c-34 -39 -89 -119 -89 -131 0 -14 43 -27 47 -15 2 6 10
18 17 28 14 20 9 23 120 -65 10 -8 30 -28 44 -43 30 -33 65 -33 70 -1 3 18
-16 35 -97 89 -56 37 -101 71 -101 75 0 4 7 13 16 20 27 23 38 51 23 61 -20
13 -23 12 -50 -18z"/>
<path d="M3171 3963 c-12 -49 -33 -105 -46 -125 -31 -46 -31 -65 -4 -73 24 -8
38 7 39 40 1 16 4 14 17 -10 31 -60 81 -77 104 -34 7 14 6 19 -3 20 -7 1 -24
2 -38 2 -47 3 -59 77 -13 77 8 0 28 13 44 29 57 57 24 161 -51 161 -25 0 -28
-5 -49 -87z m83 14 c12 -33 -6 -70 -41 -86 -14 -7 -27 -10 -28 -9 -2 2 7 31
18 66 22 65 36 73 51 29z"/>
<path d="M2756 4019 c5 -8 9 -24 8 -36 0 -12 2 -21 5 -18 13 8 6 58 -9 63 -11
4 -13 2 -4 -9z"/>
<path d="M2963 3983 c-27 -24 -53 -76 -53 -106 0 -34 33 -68 68 -69 41 -1 87
36 101 83 14 47 4 72 -39 94 -38 19 -52 19 -77 -2z m75 -63 c4 -47 -29 -86
-59 -69 -16 8 -19 18 -16 45 6 43 24 66 51 62 16 -2 22 -11 24 -38z"/>
<path d="M3105 3990 c3 -5 10 -10 16 -10 5 0 9 5 9 10 0 6 -7 10 -16 10 -8 0
-12 -4 -9 -10z"/>
<path d="M3382 3991 c-18 -11 -19 -109 -2 -140 11 -21 8 -32 -20 -92 -28 -57
-31 -70 -20 -84 18 -22 34 -6 59 63 21 56 30 64 111 109 40 23 54 58 25 69 -8
4 -29 -10 -53 -35 -50 -52 -70 -53 -74 -3 -2 20 1 50 6 65 10 33 -10 62 -32
48z"/>
<path d="M1350 3981 c0 -14 30 -35 38 -26 4 4 1 10 -6 12 -6 3 -10 9 -6 14 3
5 -2 9 -10 9 -9 0 -16 -4 -16 -9z"/>
<path d="M3307 3874 c-14 -27 -14 -34 -2 -51 8 -11 11 -23 8 -27 -3 -3 -1 -6
5 -6 17 0 25 42 14 81 l-9 34 -16 -31z"/>
<path d="M1270 3841 c0 -10 30 -24 37 -17 3 2 -5 9 -16 16 -12 6 -21 7 -21 1z"/>
<path d="M1106 3821 c-34 -38 -21 -113 25 -137 31 -16 40 -13 76 19 20 17 26
18 52 7 27 -11 51 -47 40 -60 -2 -3 -17 -5 -34 -5 -25 0 -31 -4 -33 -26 -4
-38 35 -54 76 -29 36 22 44 43 37 96 -3 28 -14 48 -39 71 -40 37 -61 35 -109
-8 -35 -32 -47 -35 -65 -17 -23 23 -14 48 17 48 32 0 43 16 29 43 -12 23 -51
22 -72 -2z"/>
</g>
</svg>
